Coordinates
version=1
nRows=20
nColumns=63
inDegrees=yes

Units are S.I. units (second, meters, Newtons, ...)
If the header above contains a line with 'inDegrees', this indicates whether rotational values are in degrees (yes) or radians (no).

endheader
time	pelvis_tilt	pelvis_list	pelvis_rotation	pelvis_tx	pelvis_ty	pelvis_tz	hip_flexion_r	hip_adduction_r	hip_rotation_r	knee_angle_r	knee_angle_r_beta	ankle_angle_r	subtalar_angle_r	mtp_angle_r	hip_flexion_l	hip_adduction_l	hip_rotation_l	knee_angle_l	knee_angle_l_beta	ankle_angle_l	subtalar_angle_l	mtp_angle_l	L5_S1_Flex_Ext	L5_S1_Lat_Bending	L5_S1_axial_rotation	L4_L5_Flex_Ext	L4_L5_Lat_Bending	L4_L5_axial_rotation	L3_L4_Flex_Ext	L3_L4_Lat_Bending	L3_L4_axial_rotation	L2_L3_Flex_Ext	L2_L3_Lat_Bending	L2_L3_axial_rotation	L1_L2_Flex_Ext	L1_L2_Lat_Bending	L1_L2_axial_rotation	L1_T12_Flex_Ext	L1_T12_Lat_Bending	L1_T12_axial_rotation	Abs_r3	Abs_r2	Abs_r1	Abs_t1	Abs_t2	neck_flexion	neck_bending	neck_rotation	arm_flex_r	arm_add_r	arm_rot_r	elbow_flex_r	pro_sup_r	wrist_flex_r	wrist_dev_r	arm_flex_l	arm_add_l	arm_rot_l	elbow_flex_l	pro_sup_l	wrist_flex_l	wrist_dev_l
1.830508	1.348985	-12.704013	98.871259	0.155958	0.817288	0.605142	4.301895	-2.565149	-20.150515	2.241172	0.039116	9.700667	15.076616	0.000000	9.411654	0.517343	15.307814	4.078217	0.071178	5.267508	-8.623472	0.000000	0.502151	-0.079132	0.548509	0.932545	-0.105245	0.582791	0.824984	-0.192401	0.582791	0.573908	-0.192401	0.479945	0.466297	-0.161365	0.445663	0.286929	-0.122575	0.411382	3.586814	-0.895152	3.050641	0.000000	0.000000	28.371353	30.995973	41.159461	5.108820	-12.679789	100.661773	13.962670	6.639366	-7.813816	-9.182739	11.087423	-8.651329	128.094427	7.901551	3.838149	-8.929076	-22.174482
1.847458	1.361598	-11.829767	99.082426	0.154173	0.818590	0.602951	3.221960	-2.511234	-20.684377	2.248809	0.039249	9.644918	15.392657	0.000000	8.238222	0.515521	15.239499	3.890731	0.067906	5.531341	-8.446197	0.000000	0.492937	-0.040582	0.503317	0.915434	-0.053975	0.534775	0.809847	-0.098672	0.534775	0.563378	-0.098672	0.440403	0.457742	-0.082756	0.408945	0.281664	-0.062862	0.377488	3.521002	-0.459077	2.799299	0.000000	0.000000	28.356046	31.912100	42.547048	4.915172	-12.831652	98.323829	14.132674	6.968066	-7.915393	-9.259886	11.180098	-8.299893	129.282573	7.756292	3.850583	-10.081490	-22.407181
1.864407	1.356895	-10.917352	99.060406	0.152648	0.819730	0.600813	2.154179	-2.472716	-21.019348	2.315871	0.040420	9.656640	15.753444	0.000000	6.985166	0.504963	14.994815	3.705367	0.064671	5.750658	-8.473281	0.000000	0.485061	0.001759	0.473896	0.900807	0.002339	0.503515	0.796907	0.004276	0.503515	0.554377	0.004276	0.414659	0.450428	0.003587	0.385041	0.277164	0.002724	0.355422	3.464745	0.019896	2.635669	0.000000	0.000000	28.343910	32.560737	43.463919	4.760931	-12.956197	96.532029	14.167756	7.223405	-7.932182	-9.286068	11.220965	-7.936565	130.531210	7.512161	3.811869	-11.109176	-22.568967
1.881356	1.341721	-9.975265	98.821506	0.151380	0.820703	0.598743	1.106431	-2.453156	-21.129313	2.440573	0.042596	9.736952	16.108522	0.000000	5.668593	0.492939	14.580922	3.528307	0.061581	5.905111	-8.705619	0.000000	0.477727	0.048385	0.458659	0.887186	0.064351	0.487325	0.784857	0.117642	0.487325	0.545994	0.117642	0.401327	0.443617	0.098666	0.372660	0.272973	0.074948	0.343994	3.412353	0.547336	2.550924	0.000000	0.000000	28.335135	32.905202	43.883678	4.673302	-13.050578	95.520964	14.059273	7.423627	-7.904481	-9.218864	11.207556	-7.564769	131.809874	7.177767	3.730176	-11.971445	-22.625414
1.898305	1.320848	-9.017811	98.379653	0.150379	0.821505	0.596750	0.095183	-2.452554	-21.017336	2.623850	0.045795	9.887115	16.448362	0.000000	4.311273	0.478962	13.999966	3.364789	0.058727	5.979414	-9.126913	0.000000	0.470241	0.099081	0.460381	0.873284	0.131778	0.489155	0.772559	0.240906	0.489155	0.537438	0.240906	0.402834	0.436666	0.202046	0.374060	0.268696	0.153477	0.345286	3.358884	1.120826	2.560503	0.000000	0.000000	28.328634	32.956558	43.867804	4.674687	-13.115028	95.418617	13.815719	7.611288	-7.868500	-9.010386	11.153934	-7.192224	133.094793	6.777061	3.620127	-12.626668	-22.544115
1.915254	1.289734	-8.069513	97.755653	0.149639	0.822120	0.594872	-0.849539	-2.484947	-20.675526	2.871906	0.050124	10.120802	16.725726	0.000000	2.956319	0.482585	13.272708	3.235523	0.056471	5.955801	-9.741446	0.000000	0.461759	0.152390	0.477962	0.857533	0.202678	0.507835	0.758624	0.370520	0.507835	0.527745	0.370520	0.418217	0.428790	0.310753	0.388344	0.263849	0.236052	0.358472	3.298301	1.723863	2.658282	0.000000	0.000000	28.323160	32.782949	43.571481	4.787561	-13.142274	96.354416	13.432705	7.790083	-7.861589	-8.669128	11.067831	-6.827763	134.349122	6.323993	3.490988	-13.070618	-22.325819
1.932203	1.249595	-7.136559	96.988123	0.149122	0.822551	0.593140	-1.721974	-2.551179	-20.123989	3.184978	0.055588	10.441594	16.907851	0.000000	1.624331	0.506830	12.434577	3.149296	0.054966	5.838494	-10.534401	0.000000	0.449176	0.207628	0.510443	0.834165	0.276145	0.542346	0.737951	0.504826	0.542346	0.513363	0.504826	0.446638	0.417105	0.423395	0.414735	0.256659	0.321616	0.382832	3.208419	2.348728	2.838932	0.000000	0.000000	28.317765	32.423424	43.099177	5.028334	-13.139794	98.312993	12.928983	7.905474	-7.875341	-8.177472	10.974419	-6.476819	135.530967	5.852540	3.352407	-13.304034	-21.967282
1.949153	1.205483	-6.228607	96.090413	0.148823	0.822777	0.591565	-2.510312	-2.651246	-19.363459	3.562047	0.062169	10.851762	16.969994	0.000000	0.332456	0.555756	11.507609	3.108302	0.054250	5.650932	-11.472406	0.000000	0.431465	0.264732	0.560426	0.801273	0.352094	0.595452	0.708854	0.643670	0.595452	0.493121	0.643670	0.490372	0.400658	0.539842	0.455346	0.246539	0.410070	0.420319	3.081910	2.994703	3.116919	0.000000	0.000000	28.313305	31.891913	42.495829	5.389077	-13.122033	101.154991	12.328367	7.815037	-7.853804	-7.529388	10.885632	-6.143164	136.575723	5.393165	3.222503	-13.323435	-21.469657
1.966102	1.161045	-5.340272	95.086031	0.148730	0.822791	0.590113	-3.232281	-2.776200	-18.385672	3.984693	0.069546	11.344102	16.878473	0.000000	-0.932203	0.624766	10.520909	3.087983	0.053895	5.411709	-12.521658	0.000000	0.408212	0.323419	0.634114	0.758091	0.430147	0.673747	0.670652	0.786361	0.673747	0.466546	0.786361	0.554850	0.379066	0.659516	0.515218	0.233253	0.500976	0.475586	2.915820	3.658582	3.526754	0.000000	0.000000	28.311451	31.150633	41.687120	5.820821	-13.091493	104.629565	11.630046	7.470641	-7.798179	-6.747016	10.820631	-5.829868	137.492539	4.982904	3.117454	-13.117961	-20.824014
1.983051	1.126561	-4.499728	94.027185	0.148774	0.822538	0.588817	-3.853892	-2.926714	-17.296768	4.470425	0.078024	11.917105	16.666669	0.000000	-2.111966	0.719982	9.462915	3.131643	0.054657	5.196040	-13.555186	0.000000	0.384606	0.383945	0.729089	0.714252	0.510647	0.774657	0.631870	0.933524	0.774657	0.439567	0.933524	0.637953	0.357145	0.782941	0.592385	0.219764	0.594731	0.546816	2.747204	4.343263	4.054972	0.000000	0.000000	28.312242	30.266071	40.740985	6.244003	-13.147908	107.685655	11.058644	7.027000	-7.720053	-5.852578	10.769348	-5.521704	138.284647	4.616250	3.016160	-12.719976	-20.071518
2.000000	1.101485	-3.688601	92.919599	0.148958	0.822041	0.587591	-4.410988	-3.095397	-16.147250	4.998843	0.087246	12.547114	16.409593	0.000000	-3.247298	0.831955	8.347047	3.198307	0.055821	5.015786	-14.530479	0.000000	0.362290	0.445650	0.854527	0.672809	0.592715	0.907935	0.595207	1.083554	0.907935	0.414062	1.083554	0.747711	0.336423	0.908770	0.694303	0.207013	0.690312	0.640895	2.587804	5.041286	4.752623	0.000000	0.000000	28.316871	29.075459	39.408639	6.558312	-13.290475	109.911392	10.624898	6.869284	-7.702776	-4.841947	10.741334	-5.218399	139.006932	4.306179	2.911621	-12.076329	-19.225945
2.016949	1.087977	-2.909010	91.803552	0.149253	0.821302	0.586435	-4.910011	-3.278705	-14.992917	5.563054	0.097094	13.221812	16.126968	0.000000	-4.334164	0.963680	7.226338	3.274191	0.057145	4.890096	-15.456780	0.000000	0.343636	0.507075	1.009743	0.638166	0.674410	1.072852	0.564559	1.232903	1.072852	0.392742	1.232903	0.883525	0.319100	1.034028	0.820416	0.196354	0.785460	0.757307	2.454557	5.736137	5.615888	0.000000	0.000000	28.324525	27.430392	37.454284	6.779333	-13.469496	111.762748	10.228473	6.678659	-7.604296	-3.769769	10.743664	-4.928922	139.624286	4.066630	2.842682	-11.219959	-18.361179
2.033898	1.084029	-2.172362	90.739749	0.149591	0.820342	0.585379	-5.349190	-3.477237	-13.973251	6.161574	0.107540	13.927543	15.925244	0.000000	-5.342362	1.114037	6.124261	3.376820	0.058937	4.860352	-16.237151	0.000000	0.330320	0.566133	1.189231	0.613438	0.752957	1.263557	0.542683	1.376496	1.263557	0.377523	1.376496	1.040577	0.306735	1.154459	0.966250	0.188745	0.876940	0.891923	2.359445	6.404213	6.614143	0.000000	0.000000	28.333384	25.275756	34.744049	6.889200	-13.674919	113.151108	9.878783	6.441771	-7.441244	-2.704929	10.795607	-4.650531	140.235330	3.895574	2.792053	-10.243425	-17.517339
2.050847	1.080735	-1.474054	89.746600	0.149982	0.819203	0.584388	-5.743267	-3.687313	-13.077804	6.784363	0.118409	14.648740	15.766041	0.000000	-6.284235	1.282259	5.070189	3.481396	0.060762	4.916880	-16.878981	0.000000	0.322833	0.620915	1.387820	0.599534	0.825817	1.474559	0.530383	1.509693	1.474559	0.368966	1.509693	1.214343	0.299783	1.266170	1.127604	0.184467	0.961798	1.040865	2.305967	7.023918	7.718640	0.000000	0.000000	28.343639	22.735720	31.399264	6.895468	-13.888237	114.102148	9.567588	6.222888	-7.215122	-1.690179	10.883920	-4.397661	140.781829	3.777023	2.776950	-9.152326	-16.763718
2.067797	1.074747	-0.825712	88.856356	0.150387	0.817927	0.583440	-6.093759	-3.907525	-12.394689	7.419722	0.129499	15.366788	15.715657	0.000000	-7.144628	1.465039	4.034348	3.588531	0.062632	5.056331	-17.293864	0.000000	0.325117	0.669651	1.598206	0.603775	0.890636	1.698093	0.534135	1.628190	1.698093	0.371576	1.628190	1.398430	0.301904	1.365552	1.298542	0.185772	1.037290	1.198654	2.322278	7.575227	8.888740	0.000000	0.000000	28.355932	19.933506	27.509412	6.805080	-14.096213	114.730550	9.291751	5.959924	-6.930282	-0.799081	10.997590	-4.161293	141.479415	3.677683	2.723293	-8.138844	-16.126112
2.084746	1.066321	-0.219421	88.061193	0.150808	0.816584	0.582527	-6.412529	-4.130757	-11.895327	8.060055	0.140674	16.057599	15.743409	0.000000	-7.942423	1.653334	3.050324	3.676989	0.064176	5.225180	-17.549918	0.000000	0.338114	0.712300	1.815039	0.627911	0.947359	1.928479	0.555487	1.731886	1.928479	0.386430	1.731886	1.588159	0.313973	1.452522	1.474719	0.193198	1.103353	1.361279	2.415114	8.057680	10.094700	0.000000	0.000000	28.370815	16.966666	23.203590	6.629579	-14.298824	114.980368	9.068089	5.715258	-6.606798	-0.050094	11.120030	-3.949908	142.180390	3.619851	2.686730	-7.291727	-15.636946
2.101695	1.056679	0.352706	87.363913	0.151219	0.815238	0.581673	-6.713115	-4.349777	-11.553726	8.695724	0.151769	16.707909	15.813975	0.000000	-8.685903	1.841793	2.149189	3.748454	0.065423	5.381531	-17.724842	0.000000	0.360917	0.748853	2.032468	0.670259	0.995975	2.159497	0.592951	1.820762	2.159497	0.412492	1.820762	1.778410	0.335148	1.527062	1.651380	0.206228	1.159974	1.524351	2.577995	8.471180	11.303977	0.000000	0.000000	28.388513	13.862805	18.513191	6.388527	-14.488719	114.884685	8.894004	5.447590	-6.266086	0.546759	11.243358	-3.754964	142.915694	3.597860	2.636479	-6.713484	-15.298067
2.118644	1.045680	0.896886	86.750231	0.151635	0.813939	0.580921	-6.999088	-4.559727	-11.322462	9.322320	0.162705	17.301406	15.898542	0.000000	-9.383312	2.024688	1.339038	3.800087	0.066324	5.496301	-17.853422	0.000000	0.390780	0.779182	2.246888	0.725717	1.036312	2.387319	0.642012	1.894503	2.387319	0.446622	1.894503	1.966027	0.362878	1.588908	1.825597	0.223291	1.206953	1.685166	2.791299	8.814264	12.496519	0.000000	0.000000	28.407157	10.610969	13.426844	6.105001	-14.664083	114.409683	8.774626	5.190721	-5.913699	1.009896	11.364062	-3.578417	143.613824	3.616740	2.572585	-6.382259	-15.109548
2.135593	1.035780	1.426111	86.220957	0.152044	0.812748	0.580351	-7.279165	-4.751067	-11.164266	9.939150	0.173471	17.814887	15.936355	0.000000	-10.043057	2.195093	0.616103	3.838871	0.067001	5.564488	-17.932129	0.000000	0.421988	0.803707	2.454982	0.783673	1.068930	2.608418	0.693283	1.954133	2.608418	0.482290	1.954133	2.148109	0.391858	1.638919	1.994673	0.241124	1.244942	1.841236	3.014215	9.091693	13.653873	0.000000	0.000000	28.423392	7.169970	7.895196	5.801385	-14.832155	113.494227	8.722720	4.989850	-5.543036	1.350054	11.500064	-3.413048	144.206877	3.694748	2.522282	-6.209270	-15.001675
2.152542	1.027933	1.933826	85.761072	0.152447	0.811698	0.579943	-7.550885	-4.924269	-11.060729	10.537019	0.183906	18.236210	15.969910	0.000000	-10.668125	2.353077	-0.011069	3.854711	0.067277	5.573795	-18.019930	0.000000	0.456390	0.823554	2.647266	0.847561	1.095327	2.812720	0.749803	2.002389	2.812720	0.521608	2.002389	2.316358	0.423804	1.679391	2.150903	0.260781	1.275685	1.985449	3.259947	9.316206	14.723298	0.000000	0.000000	28.437628	3.692118	2.169478	5.489987	-14.988246	112.195536	8.741602	4.869595	-5.201863	1.561728	11.613961	-3.267563	144.622944	3.854583	2.448757	-6.175758	-14.970858
